<?xml version="1.0" encoding="utf-8"?>
<!-- Generator: Adobe Illustrator 27.9.5, SVG Export Plug-In . SVG Version: 9.03 Build 54986)  -->
<svg version="1.1" id="Layer_1" xmlns="http://www.w3.org/2000/svg" xmlns:xlink="http://www.w3.org/1999/xlink" x="0px" y="0px"
	 viewBox="0 0 2000 2000" enable-background="new 0 0 2000 2000" xml:space="preserve">
<g fill="#c4713b">
	<path d="M1283.368,1342.827c-9.459,5.049-19.092,7.377-28.758,0.219c-1.062-0.786-2.452-1.191-3.746-1.591
		c-16.13-4.993-28.923,0.01-35.141,13.708c-11.167,24.598-1.935,41.241,24.919,45.351c14.636,2.239,29.202,1.706,43.753-0.325
		c31.961-4.462,61.566-14.499,85.753-36.997c24.566-22.851,43.319-49.834,55.602-80.993c12.258-31.101,13.855-62.835,3.204-94.914
		c-7.189-21.65-21.229-36.851-41.944-46.11c-13.768-6.154-28.131-10.448-43.08-12.027c-7.686-0.812-15.717-0.601-23.338,0.673
		c-17.979,3.003-31.765,13.301-43.038,27.199c-14.067,17.344-24.212,36.962-32.769,57.443
		c-8.261,19.774-16.067,39.741-24.489,59.445c-10.337,24.188-23.027,47.066-39.654,67.592c-1.776,2.193-3.853,4.143-5.789,6.206
		c0.272-4.491,1.515-8.297,3.277-11.845c17.712-35.642,35.246-71.375,53.361-106.812c15.174-29.682,31.263-58.896,46.511-88.541
		c5.584-10.856,10.951-22.04,14.501-33.66c2.922-9.565,4.887-20.169,3.978-30.007c-2.017-21.804-14.538-37.651-33.182-48.663
		c-16.352-9.658-34.454-14.487-52.859-18.086c-83.532-16.331-167.884-23.115-252.909-19.744c-24.07,0.954-48.039,4.731-72.021,7.505
		c-4.312,0.499-8.565,2.154-12.66,3.753c-4.729,1.847-8.072,5.157-7.957,10.709c0.106,5.104,3.42,7.962,7.633,9.914
		c2.146,0.994,4.438,1.759,6.739,2.312c5.949,1.428,11.896,2.953,17.923,3.959c45.297,7.555,90.676,14.638,135.904,22.572
		c41.598,7.296,82.614,17.163,122.082,32.486c11.69,4.538,22.934,10.294,34.156,15.94c4.394,2.21,8.812,5.032,11.146,11.606
		c-4.956,2.515-9.428,5.842-14.423,7.112c-12.825,3.259-25.776,6.365-38.866,8.169c-34.118,4.703-68.52,5.669-102.911,5.973
		c-52.795,0.466-105.518-1.489-158.177-5.388c-43.477-3.219-86.813-7.674-129.436-17c-17.2-3.763-34.008-9.48-50.769-14.994
		c-5.131-1.688-10.986-3.908-13.305-11.397c3.777-3.104,7.331-6.814,11.583-9.356c9.039-5.404,18.358-10.359,27.716-15.203
		c10.872-5.629,22.006-10.758,32.825-16.483c4.16-2.202,8.223-4.993,11.535-8.308c7.576-7.58,5.688-17.127-4.222-21.36
		c-3.976-1.698-8.562-2.904-12.834-2.802c-13.914,0.33-27.966,0.32-41.685,2.342c-32.525,4.791-62.223,16.774-88.228,37.421
		c-27.537,21.864-37.954,49.944-30.594,84.14c3.857,17.927,8.58,35.727,13.992,53.251c18.606,60.247,48.541,115.211,79.724,169.611
		c27.018,47.135,63.566,85.549,105.9,119.027c32.959,26.064,70.498,38.736,112.146,41.093c33.822,1.915,67.389-0.317,100.827-4.829
		c31.437-4.24,62.362-10.984,91.571-23.763c8.638-3.779,17.155-8.499,24.559-14.285c13.016-10.173,14.354-20.623,6.286-34.991
		c-2.273-4.049-4.382-8.191-7.22-13.516c5.915-1.124,10.45-2.481,15.05-2.754c9.165-0.544,18.372-0.803,27.551-0.63
		c33.58,0.632,66.17,7.729,98.54,15.857c24.422,6.132,48.812,12.712,71.539,23.749c9.658,4.691,18.774,10.994,27.071,17.852
		c8.475,7.005,10.711,17.076,8.524,27.901c-2.832,14.023-9.041,26.298-19.051,36.608c-9.421,9.703-20.572,17.008-33.198,21.408
		c-17.316,6.034-34.745,12.129-52.579,16.227c-81.397,18.702-163.979,30.003-247.149,36.765
		c-48.85,3.972-97.804,6.858-146.755,9.346c-67.027,3.406-133.318-1.986-198.39-19.295c-20.101-5.347-40.207-10.991-57.81-22.401
		c-9.314-6.038-18.025-13.369-25.824-21.283c-7.708-7.822-10.825-18.075-8.61-29.246c3.71-18.717,11.774-35.109,28.515-45.318
		c13.6-8.293,27.858-15.58,42.184-22.579c9.755-4.765,20.141-8.233,30.219-12.345c3.625-1.479,7.062-3.581,6.194-8.137
		c-0.901-4.735-4.721-6.503-9.175-6.416c-3.714,0.072-7.538,0.26-11.104,1.193c-26.234,6.865-50.815,17.424-72.858,33.439
		c-19.826,14.406-30.549,34.348-34.617,58.085c-2.407,14.043,0.853,27.027,8.741,38.883c6.507,9.779,14.923,17.618,24.415,24.41
		c16.799,12.019,35.45,20.126,55.104,26.089c70.131,21.279,141.979,28.178,214.946,25.376c20.749-0.797,41.503-1.736,62.217-3.154
		c38.713-2.651,77.504-4.714,116.067-8.838c45.654-4.882,91.188-11.115,136.615-17.83c39.032-5.77,77.962-12.672,115.727-24.408
		c15.836-4.922,31.653-10.79,46.29-18.488c25.704-13.519,42.109-35.133,48.122-63.89c3.762-17.99-0.57-33.996-14.292-46.504
		c-6.477-5.904-13.755-11.259-21.455-15.407c-9.535-5.137-19.693-9.302-29.919-12.942c-30.506-10.858-61.931-18.343-93.702-24.436
		c-26.129-5.011-52.426-8.719-79.087-7.776c-10.131,0.358-20.443,1.52-30.237,4.022c-14.123,3.608-18.16,13.363-12.314,26.631
		c1.504,3.411,3.458,6.631,5.306,9.881c5.4,9.499,5.297,12.619-4.281,18.226c-9.617,5.63-19.853,10.631-30.399,14.173
		c-55.202,18.536-112.193,24.7-170.117,22.125c-34.693-1.543-67.02-11.219-95.059-32.699
		c-40.583-31.089-77.276-65.997-102.886-110.77c-19.754-34.536-39.025-69.438-56.521-105.151
		c-18.59-37.947-32.141-77.924-40.897-119.442c-6.064-28.752,2.367-51.613,25.971-68.983c2.193-1.614,4.319-3.324,6.568-4.856
		c29.301-19.953,62.111-28.654,97.141-30.127c1.305-0.055,2.649,0.825,5.421,1.753c-6.092,3.077-10.625,5.362-15.153,7.657
		c-10.62,5.381-21.449,10.397-31.783,16.28c-7.053,4.016-13.945,8.653-19.979,14.052c-14.208,12.716-12.864,26.269,3.183,36.849
		c3.67,2.42,7.625,4.546,11.7,6.184c7.247,2.912,14.567,5.762,22.065,7.915c43.361,12.448,87.892,18.393,132.653,22.316
		c35.929,3.149,71.969,5.262,108.001,6.959c53.086,2.5,106.221,2.65,159.245-1.301c18.949-1.412,37.87-4.317,56.542-7.904
		c9.497-1.824,19.078-5.531,27.447-10.403c15.11-8.798,16.442-23.917,3.267-35.422c-7.067-6.171-15.333-11.629-23.969-15.214
		c-19.756-8.2-39.777-16.013-60.217-22.263c-56.783-17.364-115.461-25.689-173.938-34.831c-14.193-2.219-28.385-4.451-42.577-6.677
		c2.252-2.053,4.461-2.905,6.727-3.097c10.514-0.889,21.031-1.877,31.569-2.32c68.218-2.87,136.128,0.746,203.69,10.455
		c26.591,3.821,53.286,7.516,78.929,15.926c8.976,2.944,17.943,6.68,25.974,11.593c18.815,11.512,26.268,29.873,19.705,50.871
		c-4.329,13.851-10.836,27.108-17.261,40.193c-7.193,14.647-15.739,28.626-23.089,43.203c-15.777,31.292-31.552,62.597-46.58,94.251
		c-10.789,22.726-20.521,45.962-30.373,69.119c-2.37,5.57-3.669,11.666-4.867,17.639c-0.906,4.519,0.009,9.045,4.4,11.655
		c4.317,2.567,8.827,1.589,12.383-1.412c5.7-4.813,11.394-9.769,16.312-15.35c14.711-16.692,26.768-35.286,36.28-55.342
		c9.325-19.66,17.564-39.833,26.499-59.682c7.396-16.428,14.193-33.227,22.983-48.893c6.584-11.733,15.072-22.705,24.239-32.604
		c11.273-12.175,26.295-16.707,42.846-14.416c14.574,2.017,28.491,6.418,41.724,12.98c14.462,7.171,24.244,18.256,29.543,33.53
		c7.35,21.183,8.705,42.78,3.135,64.354c-10.652,41.254-33.417,75.007-66.736,101.285c-8.392,6.619-18.556,11.548-28.62,15.376
		c-21.492,8.177-43.971,11.957-67.069,10.704c-5.055-0.274-10.187-1.109-15.045-2.509c-7.055-2.033-8.504-4.974-7.088-12.299
		c0.385-1.992,1.038-3.958,1.784-5.851c2.473-6.269,6.121-8.499,12.736-6.933c3.914,0.927,7.483,3.223,11.349,4.464
		c11.555,3.71,23.027,6.579,32.607-4.623c1.203-1.407,3.615-1.78,5.466-2.635c45.278-20.91,73.835-55.905,86.104-103.922
		c5.694-22.281,4.94-44.671-5.435-65.812c-9.364-19.085-25.49-27.688-46.29-27.688c-4.586,0-9.463,1.356-13.681,3.254
		c-4.624,2.08-6.502,7.58-4.708,11.136c2.258,4.476,5.949,3.14,9.75,2.341c18.728-3.936,33.749,4.237,40.789,22.061
		c4.332,10.966,5.99,22.453,4.666,34.081C1358.057,1281.465,1329.32,1318.295,1283.368,1342.827z"/>
	<path d="M722.429,642.952c8.17,5.181,17.637,9.386,27.067,11.272c16.611,3.322,33.6,5.665,50.516,6.377
		c35.027,1.474,70.117,1.371,105.169,2.379c22.81,0.656,45.57,2.651,67.789,8.147c8.506,2.104,16.995,5.079,24.791,9.036
		c8.433,4.279,8.787,10.4,0.82,15.519c-6.741,4.332-14.421,8.196-22.188,9.741c-18.312,3.643-36.878,6.162-55.428,8.425
		c-21.614,2.638-43.37,4.251-64.403,10.372c-11.486,3.343-22.613,7.599-32.18,15.025c-17.417,13.519-18.81,32.193-2.688,47.11
		c6.631,6.135,14.68,11.076,22.775,15.206c10.881,5.55,22.475,9.689,33.672,14.638c4.516,1.996,8.792,4.53,15.03,7.787
		c-6.161,3.311-10.413,5.89-14.903,7.947c-9.585,4.391-19.381,8.324-28.93,12.789c-11.775,5.506-22.712,12.361-32.036,21.559
		c-17.612,17.375-20.892,35.207-10.501,57.545c2.294,4.933,4.912,9.716,7.202,14.651c2.694,5.803,3.78,11.473-0.569,17.279
		c-3.536,4.72-3.34,10.159-1.337,15.592c3.039,8.245,5.986,16.523,9.029,24.767c0.705,1.908,1.205,4.181,2.565,5.492
		c2.284,2.201,5.094,5.104,7.844,5.287c4.218,0.28,6.101-3.697,6.853-7.616c1.833-9.559,1.487-18.896-2.438-28.024
		c-1.116-2.594-2.521-6.379-1.46-8.38c6.815-12.849,2.491-24.479-3.015-36.078c-2.186-4.605-4.835-8.988-7.132-13.544
		c-5.778-11.458-4.291-22.162,5.175-30.637c7.281-6.52,15.299-12.516,23.805-17.293c10.042-5.64,21.071-9.493,31.464-14.552
		c7.001-3.409,14.226-6.811,20.313-11.548c11.313-8.803,11.191-21.141,0.152-30.32c-4.135-3.438-8.97-6.2-13.832-8.556
		c-7.031-3.407-14.46-5.981-21.565-9.246c-8.951-4.113-18.161-7.888-26.523-13.011c-17.016-10.424-16.474-18.884,1.199-27.91
		c12.572-6.421,26.143-9.807,39.996-11.641c23.271-3.08,46.714-4.941,69.903-8.499c14.028-2.152,28.015-5.659,41.436-10.261
		c7.418-2.543,14.58-7.651,20.192-13.265c12.187-12.191,11.03-28.45-2.421-39.164c-5.48-4.365-12.014-8.024-18.66-10.172
		c-11.279-3.646-22.912-6.522-34.603-8.51c-28.256-4.803-56.845-5.773-85.459-6.259c-29.268-0.497-58.54-1.029-87.787-2.143
		c-15.319-0.583-30.558-2.855-44.906-8.68c-20.458-8.305-23.469-22.688-8.305-38.788c8.824-9.369,19.845-15.356,31.734-19.88
		c24.501-9.323,49.826-10.179,75.464-7.018c26.176,3.228,50.901,11.922,75.743,20.274c25.127,8.448,50.295,16.852,75.75,24.22
		c16.703,4.835,33.941,6.983,51.484,3.59c25.312-4.897,39.918-22.201,39.829-47.858c-0.067-19.574-7.749-36.394-19.17-51.724
		c-13.658-18.334-31.307-32.082-51.051-43.258c-27.624-15.637-57.632-24.18-88.789-28.851c-20.519-3.076-41.167-5.284-61.737-8.028
		c-3.41-0.455-6.72-1.666-11.374-2.86c3.813-4.467,6.213-7.752,9.089-10.548c6.587-6.405,13.691-12.297,20.048-18.915
		c5.622-5.853,11.176-11.978,15.56-18.759c5.107-7.899,5.185-16.845,0.856-25.347c-2.165-4.254-5.036-8.228-11.99-6.264
		c0,3.235-0.188,6.533,0.04,9.803c0.429,6.157-1.478,11.488-5.631,15.876c-4.204,4.442-8.678,8.638-13.146,12.82
		c-7.204,6.742-14.834,13.067-21.637,20.187c-4.162,4.356-7.863,9.511-10.449,14.938c-4.595,9.642-1.263,18.411,8.538,22.814
		c5.185,2.329,10.972,3.715,16.631,4.521c25.253,3.599,50.701,6.016,75.809,10.406c32.875,5.748,63.607,17.397,90.305,38.159
		c11.924,9.272,22.428,19.872,30.086,33.004c5.549,9.513,9.434,19.593,9.633,30.828c0.312,17.585-7.618,27.292-24.729,30.797
		c-11.648,2.386-23.089,0.926-34.457-1.281c-27.162-5.273-52.901-15.231-78.839-24.497c-32.08-11.46-64.287-22.382-98.675-24.584
		c-30.49-1.953-59.767,2.342-86.925,17.131c-13.06,7.111-24.352,16.306-31.687,29.551
		C699.707,611.05,704.117,631.338,722.429,642.952z"/>
	<path d="M822.019,1571.784c18.31,1.427,36.629,3.104,54.975,3.624c44.607,1.266,89.186,0.03,133.641-3.932
		c31.521-2.809,62.933-6.67,93.796-13.959c27.65-6.53,54.382-15.655,77.749-32.236c8.755-6.213,16.41-14.182,23.752-22.106
		c4.9-5.29,7.232-12.291,6.609-19.834c-0.36-4.365-1.73-7.988-8.918-8.87c-1.495,9.797-6.401,17.511-13.606,23.36
		c-7.368,5.98-15.024,11.763-23.166,16.603c-22.449,13.341-47.041,21.253-72.423,26.753c-37.993,8.233-76.494,12.804-115.274,14.928
		c-53.396,2.924-106.795,4.069-160.137-1.247c-2.688-0.268-5.445-0.388-8.118-0.096c-4.209,0.459-8.462,1.677-8.915,6.727
		c-0.417,4.657,3.556,6.349,7.11,7.467C813.29,1570.287,817.657,1571.444,822.019,1571.784z"/>
</g>
</svg>
