<?xml version="1.0" encoding="UTF-8"?>
<svg xmlns="http://www.w3.org/2000/svg" xml:space="preserve" viewBox="0 0 2000 2000">
  <g fill="#c4713b">
    <path d="M957.5 990.3c-24 1-48 4.8-72 7.6-4.3.5-8.6 2.1-12.7 3.7-4.7 1.9-8 5.2-8 10.7.2 5.1 3.5 8 7.7 10q3.3 1.5 6.8 2.2 9 2.4 17.9 4c45.3 7.6 90.7 14.6 135.9 22.6a642 642 0 0 1 122 32.5c11.8 4.5 23 10.3 34.2 15.9 4.4 2.2 8.8 5 11.2 11.6-5 2.5-9.5 5.8-14.4 7.1a356 356 0 0 1-39 8.2 805 805 0 0 1-102.8 6q-79.2.5-158.2-5.4a923 923 0 0 1-129.4-17c-17.2-3.8-34-9.5-50.8-15-5.1-1.7-11-4-13.3-11.4 3.8-3.1 7.3-6.8 11.6-9.4a517 517 0 0 1 27.7-15.2c10.9-5.6 22-10.7 32.8-16.5q6.4-3.3 11.5-8.3c7.6-7.6 5.7-17.1-4.2-21.3a32 32 0 0 0-12.8-2.8c-14 .3-28 .3-41.7 2.3a182 182 0 0 0-88.2 37.4q-41.6 32.9-30.6 84.2 5.8 26.9 14 53.2c18.6 60.3 48.5 115.2 79.7 169.6 27 47.2 63.6 85.6 105.9 119a193 193 0 0 0 112.1 41.2c33.9 1.9 67.4-.4 100.9-4.9 31.4-4.2 62.3-11 91.5-23.7 8.7-3.8 17.2-8.5 24.6-14.3 13-10.2 14.4-20.6 6.3-35-2.3-4-4.4-8.2-7.2-13.5 5.9-1.2 10.4-2.5 15-2.8q13.8-.8 27.6-.6c33.6.6 66.1 7.7 98.5 15.8a366 366 0 0 1 71.6 23.8c9.6 4.7 18.7 11 27 17.8 8.5 7 10.7 17.1 8.5 28q-4.1 21-19 36.6a85 85 0 0 1-33.2 21.4c-17.3 6-34.7 12-52.6 16.2-81.4 18.7-164 30-247.1 36.8-48.9 4-97.8 6.8-146.8 9.3-67 3.4-133.3-2-198.4-19.3-20-5.3-40.2-11-57.8-22.4-9.3-6-18-13.4-25.8-21.3a32 32 0 0 1-8.6-29.2c3.7-18.7 11.8-35.1 28.5-45.3a515 515 0 0 1 42.2-22.6c9.7-4.8 20.1-8.3 30.2-12.4 3.6-1.4 7-3.6 6.2-8.1-1-4.7-4.7-6.5-9.2-6.4q-5.7-.1-11 1.2a215 215 0 0 0-73 33.4 87 87 0 0 0-34.6 58c-2.4 14.1.9 27.1 8.8 39 6.5 9.8 14.9 17.6 24.4 24.4 16.8 12 35.4 20.1 55.1 26a649 649 0 0 0 215 25.5 2080 2080 0 0 0 62.2-3.2c38.7-2.7 77.5-4.7 116-8.8a3426 3426 0 0 0 136.6-17.9c39-5.7 78-12.6 115.8-24.4 15.8-4.9 31.6-10.8 46.3-18.5a90 90 0 0 0 48-63.9c3.8-18-.5-34-14.2-46.5a109 109 0 0 0-21.5-15.4q-14.4-7.5-29.9-13a635 635 0 0 0-93.7-24.3c-26.1-5-52.4-8.8-79-7.8q-15.5.4-30.3 4c-14.1 3.6-18.2 13.4-12.3 26.6q2.4 5 5.3 10c5.4 9.4 5.3 12.5-4.3 18.1a165 165 0 0 1-30.4 14.2 465 465 0 0 1-170.1 22.1c-34.7-1.5-67-11.2-95-32.7-40.7-31-77.4-66-103-110.7-19.7-34.6-39-69.5-56.5-105.2q-27.8-57.2-40.9-119.4-9.2-43 26-69l6.6-4.9c29.3-20 62-28.6 97.1-30 1.3-.1 2.7.7 5.4 1.7l-15.1 7.6c-10.7 5.4-21.5 10.4-31.8 16.3-7 4-14 8.7-20 14-14.2 12.8-12.9 26.3 3.2 36.9q5.6 3.6 11.7 6.2 10.9 4.5 22 7.9a700 700 0 0 0 132.7 22.3q54 4.6 108 7c53 2.5 106.2 2.6 159.3-1.3a496 496 0 0 0 56.5-8 89 89 0 0 0 27.4-10.3c15.2-8.8 16.5-24 3.3-35.5a89 89 0 0 0-24-15.2c-19.7-8.2-39.7-16-60.2-22.2-56.8-17.4-115.4-25.7-174-34.9l-42.5-6.6a11 11 0 0 1 6.7-3.1q15.7-1.6 31.6-2.4 102.3-4.1 203.7 10.5c26.6 3.8 53.3 7.5 79 16 8.9 2.9 17.9 6.6 25.9 11.5 18.8 11.5 26.3 29.9 19.7 50.9a287 287 0 0 1-17.3 40.2c-7.1 14.6-15.7 28.6-23 43.2a4429 4429 0 0 0-46.6 94.2c-10.8 22.8-20.5 46-30.4 69.2a91 91 0 0 0-4.9 17.6c-.9 4.5 0 9 4.4 11.6 3.4 2 6 1.7 9 .1 2.6-1.6 8-17 8.2-23.3-.1.2 1.7-10.5 3.4-14q26.4-53.6 53.4-106.9c15.2-29.6 31.3-58.8 46.5-88.5 5.6-10.8 11-22 14.5-33.7 3-9.5 4.9-20.1 4-30-2-21.8-14.6-37.6-33.2-48.6a164 164 0 0 0-52.9-18.1 1089 1089 0 0 0-252.9-19.8"/>
    <path d="M722.4 643a82 82 0 0 0 27.1 11.2c16.6 3.3 33.6 5.7 50.5 6.4 35 1.5 70.1 1.4 105.2 2.4 22.8.6 45.6 2.6 67.8 8.1q13 3.1 24.8 9c8.4 4.3 8.7 10.5.8 15.6a67 67 0 0 1-22.2 9.7 749 749 0 0 1-55.4 8.4c-21.6 2.7-43.4 4.3-64.4 10.4a94 94 0 0 0-32.2 15c-17.4 13.6-18.8 32.2-2.7 47.2 6.6 6 14.7 11 22.8 15.2 10.9 5.5 22.4 9.6 33.6 14.6 4.6 2 8.8 4.5 15 7.8-6 3.3-10.3 5.9-14.8 8q-14.5 6.3-29 12.7a113 113 0 0 0-32 21.6c-17.6 17.4-20.9 35.2-10.5 57.5 2.3 5 5 9.7 7.2 14.7 2.7 5.8 3.8 11.4-.6 17.3-3.5 4.7-3.3 10.1-1.3 15.5l9 24.8c.7 2 1.2 4.2 2.6 5.5 2.3 2.2 5 5.1 7.8 5.3 4.3.3 6.1-3.7 6.9-7.6a47 47 0 0 0-2.4-28c-1.2-2.6-2.6-6.4-1.5-8.4 6.8-12.9 2.5-24.5-3-36.1-2.2-4.6-4.9-9-7.2-13.5-5.7-11.5-4.2-22.2 5.2-30.7q11-10 23.8-17.3c10-5.6 21-9.5 31.5-14.5 7-3.4 14.2-6.8 20.3-11.6 11.3-8.8 11.2-21.1.2-30.3a68 68 0 0 0-13.9-8.6c-7-3.4-14.4-6-21.5-9.2-9-4.1-18.2-7.9-26.6-13-17-10.4-16.4-18.9 1.2-28 12.6-6.3 26.2-9.7 40-11.6 23.3-3 46.7-4.9 70-8.5q21.1-3.2 41.4-10.2a55 55 0 0 0 20.2-13.3c12.1-12.2 11-28.4-2.5-39.2-5.4-4.3-12-8-18.6-10.1a248 248 0 0 0-34.6-8.5 566 566 0 0 0-85.5-6.3q-43.9-.6-87.8-2.1c-15.3-.6-30.5-2.9-44.9-8.7-20.4-8.3-23.4-22.7-8.3-38.8a83 83 0 0 1 31.8-19.9 155 155 0 0 1 75.4-7c26.2 3.2 51 12 75.8 20.3 25 8.4 50.3 16.8 75.7 24.2 16.7 4.8 34 7 51.5 3.6 25.3-5 40-22.2 39.8-47.9a86 86 0 0 0-19.1-51.7 161 161 0 0 0-51.1-43.3 254 254 0 0 0-88.8-28.8c-20.5-3-41.2-5.3-61.7-8-3.4-.5-6.7-1.7-11.4-2.9 3.8-4.5 6.2-7.7 9-10.5 6.7-6.4 13.8-12.3 20.1-19 5.7-5.8 11.2-12 15.6-18.7 5.1-8 5.2-16.9.9-25.4-2.2-4.2-5-8.2-12-6.2q-.1 4.8 0 9.8.6 9.2-5.6 15.9-6.4 6.6-13.2 12.8c-7.2 6.7-14.8 13-21.6 20.2a59 59 0 0 0-10.5 14.9c-4.6 9.6-1.2 18.4 8.6 22.8q8 3.4 16.6 4.5c25.3 3.6 50.7 6 75.8 10.4a200 200 0 0 1 90.3 38.2c12 9.3 22.5 19.9 30.1 33a63 63 0 0 1 9.6 30.8c.4 17.6-7.6 27.3-24.7 30.8a87 87 0 0 1-34.4-1.3c-27.2-5.2-53-15.2-78.9-24.5-32-11.4-64.3-22.3-98.7-24.5-30.4-2-59.7 2.3-86.9 17a76 76 0 0 0-31.7 29.6c-10.5 19-6 39.3 12.2 51M822 1571.8c18.3 1.4 36.6 3 55 3.6q67 2 133.6-4c31.6-2.7 63-6.6 93.8-13.9 27.7-6.5 54.4-15.6 77.8-32.2 8.7-6.2 16.4-14.2 23.7-22.1a26 26 0 0 0 6.6-19.9c-.3-4.3-1.7-8-8.9-8.8a37 37 0 0 1-13.6 23.3c-7.4 6-15 11.8-23.1 16.6a239 239 0 0 1-72.5 26.8c-38 8.2-76.5 12.8-115.2 15-53.4 2.8-106.8 4-160.2-1.3q-4-.5-8.1-.1c-4.2.4-8.5 1.6-9 6.7-.3 4.7 3.6 6.3 7.2 7.5q6.4 2 13 2.8"/>
  </g>
</svg>

